<?xml version="1.0" encoding="utf-8"?>
<!-- Generator: Adobe Illustrator 16.0.0, SVG Export Plug-In . SVG Version: 6.00 Build 0)  -->
<!DOCTYPE svg PUBLIC "-//W3C//DTD SVG 1.1//EN" "http://www.w3.org/Graphics/SVG/1.1/DTD/svg11.dtd">
<svg version="1.1" id="Layer_1" xmlns="http://www.w3.org/2000/svg" xmlns:xlink="http://www.w3.org/1999/xlink" x="0px" y="0px"
	 width="188.105px" height="87.046px" viewBox="0 0 188.105 87.046" enable-background="new 0 0 188.105 87.046"
	 xml:space="preserve">
<g>
	<path fill="#222222" d="M1.833,34.621v-7.169h2.186V7.781H1.833V0.612h26.141v11.321h-7.737V7.781h-3.978v7.256h6.601v4.983h-6.601
		v7.431h5.727v7.169H1.833z"/>
	<path fill="#222222" d="M31.177,34.621v-7.169h2.186V7.781h-2.186V0.612h18.447v7.169h-4.021v19.67h3.934V23.43h8.699v11.19H31.177
		z"/>
	<path fill="#222222" d="M61.461,34.621v-7.169h2.186V7.781h-2.186V0.612h16.611v7.169h-2.186v19.67h2.186v7.169H61.461z"/>
	<path fill="#222222" d="M114.157,23.692h-2.186v8.743c-1.283,0.729-3.155,1.377-5.617,1.945c-2.463,0.568-5.122,0.852-7.978,0.852
		c-5.45,0-9.719-1.435-12.808-4.306c-3.089-2.87-4.634-7.307-4.634-13.311c0-6.148,1.537-10.622,4.612-13.419
		C88.621,1.399,93.014,0,98.726,0c2.769,0,5.362,0.292,7.781,0.875c2.418,0.583,4.24,1.239,5.464,1.967v10.448h-10.928v-2.055
		c0-1.224-0.255-2.105-0.765-2.645c-0.51-0.539-1.319-0.809-2.426-0.809c-1.108,0-1.917,0.27-2.426,0.809
		c-0.51,0.54-0.765,1.42-0.765,2.645v12.764c0,1.224,0.254,2.105,0.765,2.645c0.51,0.54,1.318,0.809,2.426,0.809
		c1.107,0,1.916-0.269,2.426-0.809c0.51-0.539,0.765-1.421,0.765-2.645v-0.306h-2.36v-6.513h15.474V23.692z"/>
	<path fill="#222222" d="M152.007,7.781h-2.186v19.67h2.186v7.169h-16.523v-7.169h2.099v-7.212h-6.12v7.212h2.098v7.169h-16.523
		v-7.169h2.186V7.781h-2.186V0.612h16.523v7.169h-2.098v6.644h6.12V7.781h-2.099V0.612h16.523V7.781z"/>
	<path fill="#222222" d="M188.105,11.19h-7.519V7.781h-2.798v19.67h3.06v7.169h-18.359v-7.169h3.06V7.781h-2.798v3.409h-7.519V0.612
		h32.872V11.19z"/>
</g>
<g>
	<linearGradient id="SVGID_1_" gradientUnits="userSpaceOnUse" x1="21.2549" y1="87.0459" x2="21.2549" y2="37.3896">
		<stop  offset="0" style="stop-color:#D17101"/>
		<stop  offset="1" style="stop-color:#222222"/>
	</linearGradient>
	<path fill="url(#SVGID_1_)" d="M6.315,81.132C2.104,77.189,0,70.884,0,62.218C0,45.667,8.05,37.39,24.15,37.39
		c3.901,0,7.526,0.473,10.874,1.417c3.347,0.945,5.842,1.993,7.485,3.142v15.402H27.724v-4.436c0-1.561-0.349-2.711-1.047-3.45
		c-0.699-0.739-1.746-1.109-3.142-1.109c-1.396,0-2.444,0.37-3.142,1.109c-0.699,0.739-1.047,1.89-1.047,3.45v18.606
		c0,1.561,0.348,2.71,1.047,3.45c0.698,0.739,1.745,1.109,3.142,1.109c1.396,0,2.443-0.37,3.142-1.109
		c0.698-0.739,1.047-1.889,1.047-3.45V66.53H42.51v15.957c-1.685,1.15-4.18,2.197-7.485,3.142
		c-3.307,0.944-6.891,1.417-10.751,1.417C16.511,87.046,10.524,85.075,6.315,81.132z"/>
	<linearGradient id="SVGID_2_" gradientUnits="userSpaceOnUse" x1="66.9111" y1="86.1836" x2="66.9111" y2="38.2524">
		<stop  offset="0" style="stop-color:#D17101"/>
		<stop  offset="1" style="stop-color:#222222"/>
	</linearGradient>
	<path fill="url(#SVGID_2_)" d="M47.844,86.184V76.08h3.081V48.356h-3.081V38.252h25.999v10.104h-5.668V76.08h5.545v-5.668h12.26
		v15.772H47.844z"/>
	<linearGradient id="SVGID_3_" gradientUnits="userSpaceOnUse" x1="111.5771" y1="87.0459" x2="111.5771" y2="38.2524">
		<stop  offset="0" style="stop-color:#D17101"/>
		<stop  offset="1" style="stop-color:#222222"/>
	</linearGradient>
	<path fill="url(#SVGID_3_)" d="M96.853,82.795c-3.512-2.834-5.268-7.433-5.268-13.8V48.356h-3.08V38.252H111.3v10.104h-2.464
		v23.781c0,1.355,0.297,2.352,0.893,2.988c0.595,0.637,1.488,0.955,2.68,0.955c1.19,0,2.084-0.317,2.68-0.955
		c0.595-0.636,0.894-1.633,0.894-2.988V48.356h-2.464V38.252h21.131v10.104h-3.08v20.639c0,6.367-1.705,10.966-5.114,13.8
		c-3.41,2.834-8.297,4.251-14.663,4.251C105.344,87.046,100.365,85.629,96.853,82.795z"/>
	<linearGradient id="SVGID_4_" gradientUnits="userSpaceOnUse" x1="161.8984" y1="86.1836" x2="161.8984" y2="38.2524">
		<stop  offset="0" style="stop-color:#D17101"/>
		<stop  offset="1" style="stop-color:#222222"/>
	</linearGradient>
	<path fill="url(#SVGID_4_)" d="M139.011,76.08h3.081V48.356h-3.081V38.252h28.278c5.134,0,9.138,1.047,12.013,3.142
		c2.875,2.095,4.313,5.093,4.313,8.995c0,2.424-0.576,4.466-1.725,6.13c-1.15,1.664-2.495,2.917-4.036,3.758
		c-1.54,0.842-3.029,1.407-4.466,1.694v0.616c2.916,0.288,5.544,1.212,7.886,2.772c2.341,1.562,3.512,4.354,3.512,8.379
		c0,4.312-1.623,7.465-4.867,9.457c-3.245,1.993-7.455,2.988-12.629,2.988h-28.278V76.08z M162.668,58.46
		c1.19,0,2.084-0.318,2.68-0.955c0.595-0.636,0.894-1.633,0.894-2.988v-2.218c0-1.355-0.298-2.351-0.894-2.988
		c-0.596-0.636-1.489-0.955-2.68-0.955h-3.327V58.46H162.668z M163.1,76.08c1.191,0,2.084-0.317,2.68-0.955
		c0.595-0.636,0.893-1.633,0.893-2.988v-2.71c0-1.355-0.298-2.351-0.893-2.988c-0.596-0.636-1.489-0.955-2.68-0.955h-3.758V76.08
		H163.1z"/>
</g>
</svg>
