<?xml version="1.0" standalone="no"?>
<!DOCTYPE svg PUBLIC "-//W3C//DTD SVG 20010904//EN"
 "http://www.w3.org/TR/2001/REC-SVG-20010904/DTD/svg10.dtd">
<svg version="1.0" xmlns="http://www.w3.org/2000/svg"
 width="512.000000pt" height="512.000000pt" viewBox="0 0 512.000000 512.000000"
 preserveAspectRatio="xMidYMid meet">
<metadata>
Created by potrace 1.14, written by Peter Selinger 2001-2017
</metadata>
<g transform="translate(0.000000,512.000000) scale(0.100000,-0.100000)"
fill="#000000" stroke="none">
<path d="M2073 5015 c0 -8 4 -15 9 -15 4 0 8 4 8 9 0 6 -4 12 -8 15 -5 3 -9
-1 -9 -9z"/>
<path d="M2024 5008 c3 -10 1 -18 -4 -18 -6 0 -10 5 -10 10 0 6 -5 10 -11 10
-5 0 -7 -4 -4 -10 3 -5 -1 -10 -10 -10 -9 0 -14 4 -11 8 3 5 -1 9 -8 9 -8 0
-12 -5 -10 -11 2 -6 -7 -11 -21 -11 -15 0 -25 6 -25 15 -1 9 -6 5 -15 -10 -8
-14 -14 -19 -15 -11 0 8 -3 11 -7 8 -3 -4 -12 -2 -20 5 -11 9 -12 7 -7 -7 6
-14 4 -16 -6 -10 -8 5 -24 9 -36 10 -18 0 -20 -2 -12 -12 8 -11 7 -12 -7 -7
-14 6 -16 4 -10 -6 5 -9 4 -11 -4 -6 -6 4 -9 11 -7 15 3 4 -8 7 -24 7 -21 0
-26 -4 -22 -14 4 -11 2 -13 -9 -7 -22 14 -48 13 -42 -2 4 -9 0 -11 -13 -6 -12
4 -15 3 -10 -5 4 -7 2 -12 -3 -12 -6 0 -11 5 -11 10 0 6 -5 10 -11 10 -5 0 -7
-5 -3 -12 5 -8 2 -9 -10 -5 -14 6 -17 3 -12 -10 6 -15 5 -16 -5 -5 -16 15 -33
16 -23 0 5 -7 2 -9 -8 -5 -9 3 -21 0 -28 -6 -10 -9 -11 -9 -5 2 6 10 4 12 -4
7 -7 -5 -10 -14 -7 -21 3 -10 -2 -12 -20 -9 -18 3 -23 1 -18 -7 5 -9 1 -10
-14 -7 -12 4 -20 2 -17 -2 3 -5 -1 -11 -7 -13 -10 -4 -9 -8 2 -16 9 -6 10 -11
3 -11 -6 0 -18 7 -26 15 -13 13 -16 12 -23 -3 -9 -20 -11 -28 -13 -43 0 -5 -5
-7 -11 -4 -5 3 -10 2 -10 -4 0 -6 -8 -7 -17 -4 -15 6 -16 4 -5 -9 10 -13 10
-18 1 -24 -8 -4 -9 -3 -5 4 4 7 2 12 -3 12 -6 0 -11 -4 -11 -10 0 -5 -8 -10
-17 -10 -15 0 -15 -2 2 -14 18 -13 18 -14 -5 -12 -15 0 -24 -4 -22 -11 1 -7
-2 -13 -7 -13 -4 0 -8 -10 -7 -22 1 -16 -4 -23 -15 -22 -12 1 -16 -5 -14 -22
1 -15 -3 -24 -12 -24 -8 0 -12 -4 -9 -9 6 -8 -21 -26 -35 -23 -4 1 -5 -7 -2
-17 3 -11 -3 -24 -15 -32 -11 -8 -21 -18 -23 -24 -2 -5 -10 -9 -17 -7 -8 2
-11 -1 -7 -7 3 -6 -2 -11 -13 -11 -10 0 -25 -11 -32 -25 -7 -14 -15 -23 -18
-20 -3 2 1 12 9 21 13 16 12 16 -8 4 -12 -8 -19 -18 -17 -22 3 -4 -4 -8 -16
-8 -11 0 -23 -7 -26 -15 -5 -11 -10 -13 -19 -5 -9 7 -16 5 -26 -7 -8 -9 -9
-14 -2 -10 6 4 15 2 19 -4 5 -8 -1 -10 -20 -7 -14 3 -29 1 -33 -5 -3 -6 -1 -7
5 -3 17 10 15 -3 -2 -20 -17 -17 -30 -19 -20 -2 4 7 3 8 -5 4 -9 -6 -9 -11 -1
-21 8 -10 8 -15 -1 -20 -6 -4 -15 -1 -21 6 -7 11 -9 9 -7 -6 3 -38 -1 -45 -18
-38 -17 7 -17 6 0 -11 18 -19 23 -31 8 -22 -11 7 -23 -22 -16 -35 3 -5 1 -17
-5 -28 -7 -14 -7 -22 2 -27 6 -4 8 -3 4 4 -3 6 -2 13 3 16 10 7 9 -20 -2 -30
-11 -11 -8 -54 3 -54 6 0 10 -10 10 -21 0 -19 2 -20 17 -8 11 10 14 10 9 2 -7
-12 6 -18 29 -13 5 1 7 -2 3 -6 -4 -4 -4 -12 1 -18 4 -6 11 -20 15 -31 5 -16
3 -16 -14 5 l-21 25 15 -31 c8 -17 12 -34 9 -38 -4 -3 0 -6 8 -7 8 0 6 -4 -6
-9 -17 -7 -17 -9 -2 -9 20 -1 22 -12 5 -30 -8 -8 -8 -11 -2 -8 7 4 14 -2 17
-14 5 -17 3 -18 -9 -8 -12 10 -13 9 -8 -5 3 -9 10 -16 14 -16 4 0 11 -7 14
-16 5 -14 4 -15 -9 -4 -13 11 -14 10 -9 -5 6 -14 4 -16 -7 -10 -11 7 -11 5 1
-10 8 -10 15 -25 15 -34 0 -9 4 -22 9 -30 6 -9 5 -12 -2 -7 -7 4 -9 -1 -6 -16
3 -13 7 -41 9 -62 2 -21 10 -43 17 -47 9 -6 8 -9 -7 -10 -19 0 -19 -1 -1 -8
19 -7 19 -8 1 -15 -13 -5 -15 -10 -7 -18 6 -6 8 -17 5 -24 -3 -8 0 -14 7 -14
6 0 9 4 5 9 -3 5 -1 12 3 15 5 3 8 -14 7 -37 -2 -23 2 -48 8 -55 7 -9 6 -11
-6 -7 -8 4 -18 1 -22 -5 -3 -6 -3 -10 2 -9 29 5 36 -3 13 -17 -14 -8 -18 -13
-8 -10 10 3 18 -2 21 -15 4 -15 2 -19 -8 -15 -9 3 -12 0 -8 -10 3 -7 10 -14
17 -14 6 0 4 -5 -4 -10 -13 -8 -13 -10 0 -10 10 0 11 -3 2 -12 -14 -14 4 -52
20 -42 7 4 8 3 4 -5 -4 -6 -11 -9 -16 -6 -5 3 -11 1 -15 -5 -3 -5 -1 -10 6
-10 7 0 9 -3 6 -7 -4 -3 -2 -12 4 -19 7 -8 7 -14 0 -18 -7 -5 -7 -15 -1 -32 6
-14 6 -23 2 -20 -5 3 -7 -9 -5 -27 2 -18 4 -40 4 -50 0 -9 4 -15 10 -12 5 4 5
-4 -1 -19 -5 -15 -6 -26 0 -26 5 0 6 -12 3 -27 -3 -16 -6 -35 -8 -43 -1 -8 2
-21 8 -27 6 -9 5 -13 -4 -13 -11 0 -11 -2 1 -10 8 -5 11 -12 8 -16 -4 -4 -2
-16 4 -28 10 -20 10 -20 -7 -6 -17 14 -17 14 -1 -19 10 -18 13 -30 8 -27 -6 4
-14 2 -17 -4 -4 -6 -1 -9 6 -8 6 2 14 -3 17 -11 2 -8 0 -11 -5 -8 -5 3 -10 0
-10 -8 0 -8 4 -12 9 -9 4 3 8 2 9 -3 0 -4 2 -18 3 -30 1 -12 -1 -20 -6 -17 -5
4 -7 13 -4 21 3 8 1 11 -4 8 -15 -9 -12 -22 10 -43 l21 -19 -28 4 c-26 3 -26
3 -5 -6 12 -6 22 -18 22 -26 0 -10 -5 -13 -11 -9 -7 4 -10 1 -7 -7 3 -8 11
-13 18 -11 11 2 11 0 1 -11 -9 -12 -9 -16 1 -20 9 -3 8 -7 -5 -12 -17 -7 -17
-8 0 -22 10 -8 13 -12 8 -9 -6 2 -17 -5 -25 -17 -12 -19 -11 -21 2 -10 8 7 18
10 21 6 4 -3 -1 -12 -11 -20 -16 -14 -16 -14 2 -9 16 6 17 4 6 -9 -10 -12 -10
-15 1 -15 8 0 6 -5 -6 -13 -14 -11 -15 -16 -5 -22 9 -5 11 -4 6 3 -4 7 -3 12
2 12 5 0 9 -18 8 -40 0 -22 -4 -40 -9 -40 -4 0 -4 -8 1 -17 5 -10 7 -31 5 -46
-3 -21 0 -27 8 -21 8 5 9 3 3 -7 -5 -8 -7 -22 -6 -32 2 -10 -2 -26 -10 -35 -7
-9 -8 -13 -2 -9 7 4 15 0 18 -9 3 -8 2 -12 -4 -9 -5 3 -9 -3 -9 -12 -1 -40 -1
-49 2 -78 1 -16 -2 -36 -8 -44 -7 -11 -7 -13 2 -8 6 4 14 3 18 -3 3 -5 -2 -10
-12 -11 -10 0 -13 -3 -7 -5 6 -3 10 -18 8 -35 -3 -22 0 -28 9 -23 8 5 7 2 -2
-9 -7 -9 -18 -14 -24 -10 -6 3 -7 1 -3 -5 4 -6 14 -8 23 -5 12 5 14 3 8 -7 -4
-7 -9 -26 -11 -42 -3 -21 0 -27 9 -22 9 6 9 5 0 -8 -7 -8 -10 -18 -6 -21 3 -4
1 -7 -5 -7 -7 0 -12 -4 -12 -10 0 -5 8 -7 18 -3 15 6 14 3 -3 -17 -11 -13 -15
-20 -9 -17 7 4 15 0 18 -9 4 -9 2 -13 -5 -8 -8 4 -9 -1 -4 -17 7 -22 7 -23
-11 -9 -17 14 -17 14 -1 -10 22 -32 22 -46 -1 -29 -16 13 -16 13 -2 -5 15 -19
21 -86 7 -86 -5 0 -5 -5 -1 -12 11 -17 11 -168 0 -168 -5 0 -2 -8 5 -17 13
-15 12 -16 -9 -11 -12 4 -20 2 -16 -3 3 -5 13 -9 22 -9 13 0 13 -2 -4 -16 -10
-8 -13 -13 -6 -9 6 3 12 0 13 -7 0 -7 2 -21 4 -31 2 -13 -1 -17 -11 -13 -8 3
-14 1 -14 -4 0 -6 5 -10 11 -10 7 0 9 -11 5 -30 -3 -19 -2 -29 4 -25 6 3 7 -1
4 -9 -3 -9 -10 -16 -16 -16 -5 0 -7 4 -4 8 3 5 -2 9 -11 9 -12 0 -11 -5 7 -19
12 -10 18 -18 12 -18 -5 0 -13 -7 -16 -16 -5 -14 -4 -15 8 -5 11 9 16 9 22 0
4 -7 3 -9 -3 -6 -6 4 -14 0 -17 -9 -3 -9 -11 -12 -18 -8 -10 6 -10 5 -1 -7 13
-16 12 -66 0 -87 -5 -7 -2 -12 7 -12 9 0 16 -5 16 -11 0 -5 -5 -7 -12 -3 -7 5
-9 2 -5 -9 3 -9 1 -18 -6 -21 -7 -4 -1 -4 13 -2 24 5 24 4 5 -10 -21 -16 -27
-61 -11 -83 8 -11 8 -13 -1 -7 -13 7 -16 -4 -16 -49 1 -33 3 -36 15 -29 7 5 8
3 2 -7 -12 -19 -14 -40 -4 -34 5 3 12 0 15 -6 4 -5 13 -8 21 -5 9 3 14 -1 14
-13 0 -10 7 -22 16 -25 14 -5 15 -4 4 9 -11 13 -10 14 4 9 9 -3 16 -16 16 -28
0 -17 2 -18 10 -6 8 13 10 12 10 -2 0 -10 5 -18 11 -18 5 0 8 4 5 8 -3 5 1 9
9 9 8 0 12 -3 10 -7 -2 -3 0 -12 6 -20 5 -10 9 -11 9 -3 0 7 7 10 15 7 12 -5
13 -10 5 -19 -9 -11 -7 -12 8 -8 11 2 22 0 26 -5 3 -6 20 -7 41 -2 24 5 33 5
28 -3 -4 -6 0 -8 11 -4 10 4 15 3 11 -3 -4 -7 3 -9 19 -6 14 3 30 -2 37 -10 7
-8 18 -13 26 -10 7 3 13 1 13 -4 0 -6 12 -10 26 -10 16 0 23 4 18 12 -4 7 -3
8 5 4 9 -6 9 -11 -1 -24 -12 -14 -10 -14 11 -3 19 11 25 11 32 0 7 -11 9 -11
9 -1 0 11 3 10 14 -1 11 -11 26 -13 55 -7 30 5 41 4 41 -5 0 -7 12 -11 28 -10
15 1 33 -3 41 -9 12 -9 13 -8 6 3 -6 11 -4 13 9 8 10 -4 15 -3 11 3 -3 6 1 7
9 4 9 -3 13 -11 9 -18 -5 -7 -2 -7 8 1 12 10 21 9 42 -2 27 -14 44 -5 31 17
-4 7 -3 8 4 4 7 -4 12 -15 13 -24 0 -12 3 -11 9 6 5 12 12 22 15 22 4 0 3 -4
0 -10 -3 -5 3 -10 15 -10 12 0 19 4 16 8 -3 5 2 9 10 9 8 0 13 -6 10 -14 -5
-11 -2 -11 17 -1 31 18 59 19 53 2 -3 -7 0 -16 6 -20 7 -4 8 -3 4 4 -5 8 3 12
24 12 21 0 29 4 24 12 -5 8 -3 8 7 2 18 -12 79 -14 79 -3 0 5 5 9 11 9 5 0 8
-4 5 -8 -2 -4 -1 -14 5 -22 6 -10 9 -11 9 -2 0 6 9 12 21 12 11 0 18 -4 15 -8
-2 -4 22 -7 55 -7 40 0 59 4 59 13 0 6 4 12 10 12 5 0 7 -6 4 -13 -6 -15 42
-18 65 -3 10 6 12 6 7 -2 -4 -7 -1 -12 9 -12 9 0 14 4 10 9 -3 5 -1 13 5 16 6
4 9 1 8 -6 -2 -6 3 -14 10 -16 8 -3 10 1 6 14 -6 16 -5 16 9 -2 15 -18 16 -18
17 -2 0 9 4 17 10 17 5 0 7 -8 3 -17 -5 -14 -1 -13 19 5 17 15 28 20 33 13 3
-6 11 -9 16 -6 5 3 7 0 6 -7 -2 -7 -2 -10 0 -6 3 5 13 4 22 -2 13 -6 18 -5 18
5 0 7 -6 11 -14 8 -7 -3 -13 0 -13 5 0 6 11 9 25 6 15 -3 25 0 25 7 0 7 3 9 6
6 4 -4 1 -13 -6 -22 -11 -13 -10 -14 4 -9 9 3 16 11 16 18 0 6 5 4 10 -4 9
-13 10 -13 10 0 0 13 1 13 10 0 6 -10 10 -11 10 -2 0 6 12 12 26 12 17 0 23 4
18 12 -4 7 2 4 14 -6 22 -19 22 -19 23 0 0 15 2 16 7 4 4 -8 13 -16 21 -18 12
-3 12 0 1 13 -11 13 -10 15 4 9 9 -3 16 -10 16 -15 0 -5 5 -9 11 -9 6 0 8 7 5
16 -5 14 -4 15 8 5 11 -9 15 -9 19 1 4 10 6 10 6 -1 1 -11 4 -11 18 0 13 11
15 11 9 1 -7 -11 -4 -11 14 0 18 10 24 10 27 1 3 -10 8 -9 20 2 11 11 19 13
28 5 9 -8 14 -6 19 5 3 8 11 14 18 13 7 -2 12 3 10 10 -1 8 2 11 8 7 8 -5 8
-11 -1 -21 -6 -7 -16 -11 -22 -7 -6 3 -7 1 -3 -5 5 -8 13 -9 25 -2 10 5 22 6
25 2 4 -4 16 4 26 18 l19 25 -4 -25 c-5 -25 -5 -25 19 4 22 28 24 29 34 10 11
-19 11 -19 29 0 11 13 12 16 2 8 -12 -9 -16 -9 -16 1 0 7 11 13 23 13 13 0 20
-4 16 -10 -3 -6 2 -5 11 3 9 7 17 10 18 5 0 -5 4 0 9 11 8 18 9 18 9 2 1 -10
6 -15 11 -12 6 4 8 11 5 16 -6 9 2 11 43 12 19 0 20 2 10 15 -12 14 -10 14 12
2 22 -12 24 -12 12 2 -10 13 -9 15 13 13 22 -3 24 -1 13 18 -11 21 -10 21 7 7
17 -14 18 -13 12 4 -7 17 -6 17 10 5 15 -12 16 -12 10 4 -5 14 -3 16 12 8 15
-9 17 -7 14 13 -3 13 0 27 7 31 8 5 8 10 -1 21 -8 10 -8 14 0 14 6 0 11 -4 11
-10 0 -5 5 -10 11 -10 5 0 7 5 4 10 -3 6 -1 10 5 10 6 0 8 4 5 10 -3 5 0 10 7
10 9 0 9 3 -2 10 -11 7 -11 10 -2 10 8 0 10 5 5 13 -11 18 -13 127 -1 127 5 0
6 5 3 10 -5 8 -12 7 -23 -2 -12 -9 -11 -6 2 10 17 19 15 26 -5 24 -3 -1 -6 5
-6 13 0 8 7 11 16 7 14 -5 14 -3 2 11 -11 14 -11 17 0 17 11 0 11 2 -1 10 -13
9 -13 10 0 10 12 0 12 2 1 9 -9 6 -10 11 -2 15 8 5 8 13 0 27 -9 18 -8 19 10
7 11 -6 17 -17 14 -23 -3 -5 0 -5 7 2 9 8 19 9 31 2 15 -8 17 -6 12 7 -4 11
-2 15 4 11 6 -4 13 -4 16 0 2 5 2 2 0 -5 -2 -9 3 -11 17 -7 10 3 29 1 41 -5
17 -10 20 -9 14 1 -6 9 -2 11 14 6 16 -4 21 -2 18 7 -3 7 1 13 9 13 8 0 13 -6
10 -13 -3 -8 0 -16 6 -20 7 -4 8 -3 4 4 -4 7 -3 12 3 12 5 0 12 -4 15 -9 4 -5
14 -8 24 -6 9 2 20 4 25 4 4 1 7 5 7 10 0 5 -14 7 -30 6 -17 -1 -32 0 -35 4
-6 10 82 7 92 -3 5 -5 2 -6 -7 -1 -8 5 -12 4 -7 0 21 -24 52 -13 49 16 -2 11
42 -3 50 -15 5 -7 8 -5 8 5 0 15 32 20 46 6 4 -4 13 1 20 11 8 10 13 12 14 5
0 -7 5 -13 11 -13 5 0 7 6 3 13 -5 7 0 6 11 -3 11 -9 16 -10 11 -3 -4 8 -2 13
4 13 6 0 8 5 4 13 -5 7 -1 7 10 -2 15 -13 19 -13 27 0 5 8 9 9 9 3 0 -11 55
-12 66 -2 3 4 -6 5 -20 4 -15 -2 -29 1 -33 7 -3 6 -1 7 5 3 7 -4 12 -3 12 2 0
5 18 9 39 8 22 -1 39 2 38 7 -1 5 4 12 12 15 9 3 11 0 6 -7 -5 -9 -1 -9 14 1
12 7 21 17 21 22 0 6 7 1 15 -10 15 -18 15 -18 8 0 -5 15 -3 17 8 11 11 -7 11
-5 -1 10 -14 17 -14 18 7 7 18 -10 24 -9 36 9 11 15 16 17 20 7 4 -11 6 -11 6
0 1 7 5 11 10 8 5 -3 15 2 22 12 13 15 12 16 -3 4 -11 -9 -18 -10 -23 -2 -4 6
-3 10 2 9 17 -4 43 14 36 25 -4 7 -2 7 8 -1 12 -10 18 -10 27 -1 15 15 16 31
0 22 -7 -4 -8 -3 -4 4 4 6 14 8 23 5 12 -5 15 -2 10 10 -3 9 1 21 11 29 16 12
16 11 2 -6 -14 -18 -14 -19 7 -6 17 11 19 17 11 28 -10 11 -8 13 8 10 13 -2
19 3 19 16 0 11 6 21 13 24 6 2 12 13 12 25 0 18 2 19 10 7 8 -13 10 -12 10 3
0 10 4 16 8 13 4 -2 7 11 7 29 -1 30 0 33 17 24 17 -9 18 -8 9 10 -10 17 -8
23 9 33 24 16 27 30 3 21 -13 -5 -12 -1 5 17 17 18 19 26 10 32 -10 5 -8 8 4
8 9 0 20 5 24 12 4 6 3 8 -4 4 -9 -5 -10 31 -2 54 2 3 2 9 1 13 -1 5 3 6 8 3
12 -8 22 20 14 41 -4 10 -2 14 4 10 7 -5 9 1 5 15 -4 16 -2 19 9 13 11 -7 11
-5 -1 10 -9 11 -10 16 -2 11 6 -4 12 -3 12 3 0 5 -6 12 -12 15 -7 4 -3 4 10 2
28 -5 28 2 0 14 -18 7 -19 9 -5 9 9 1 17 9 18 19 1 9 2 26 3 37 0 11 -3 23 -9
27 -6 5 -3 8 7 8 9 0 20 5 24 12 4 6 3 8 -3 5 -6 -4 -14 0 -17 9 -5 12 -2 15
11 10 15 -6 14 -4 -2 14 -16 18 -17 20 -2 14 13 -5 16 -2 10 12 -5 13 -3 15 7
9 9 -5 11 -4 6 4 -6 9 -12 9 -24 -1 -15 -11 -15 -11 -5 3 7 9 9 20 5 24 -4 5
1 5 10 2 13 -4 16 -2 11 11 -3 9 -10 22 -15 29 -6 7 -1 17 14 27 12 9 18 16
12 16 -6 0 -11 7 -11 15 0 10 6 14 16 10 13 -4 12 -2 -1 9 -19 14 -25 32 -8
21 14 -9 12 8 -2 24 -11 11 -10 13 4 8 10 -3 20 -1 24 5 4 7 3 8 -4 4 -8 -5
-12 3 -12 24 0 22 4 29 12 24 7 -4 2 7 -11 24 -24 35 -20 43 7 14 10 -10 13
-13 9 -6 -4 7 -3 15 3 19 6 3 8 11 4 16 -3 5 -9 7 -14 4 -4 -3 -10 2 -13 10
-4 9 -1 12 9 8 7 -3 14 0 14 7 0 6 5 8 11 5 6 -4 5 2 -2 13 -7 12 -17 19 -21
16 -4 -3 -5 2 -2 10 3 9 14 16 23 17 9 1 6 4 -9 9 -21 7 -22 8 -5 9 l20 2 -20
16 c-16 13 -17 15 -2 10 22 -8 22 1 0 27 -10 12 -14 18 -9 14 15 -12 31 16 32
54 0 20 -3 35 -8 32 -13 -8 -10 10 5 25 10 11 9 13 -5 8 -12 -4 -15 -2 -11 8
3 8 9 12 14 9 5 -3 9 0 9 5 0 6 -6 11 -12 11 -9 0 -8 4 2 10 13 8 13 10 -2 10
-9 0 -19 4 -22 9 -4 5 4 7 16 5 13 -2 17 -1 10 2 -10 5 -10 9 0 22 10 12 10
14 1 8 -9 -5 -13 -1 -13 11 0 11 -3 23 -7 29 -5 5 0 1 9 -9 16 -17 17 -17 15
3 -1 11 -5 20 -9 20 -4 0 -8 10 -8 23 0 18 2 19 10 7 6 -9 10 -10 10 -3 0 6
-4 14 -10 18 -5 3 -7 12 -3 20 3 9 -1 15 -10 15 -16 0 -17 24 -2 37 4 4 5 3 1
-4 -3 -6 -2 -14 3 -18 6 -3 8 4 5 17 -3 13 -6 33 -7 45 -1 12 -5 19 -9 17 -5
-3 -5 -10 -2 -16 4 -7 2 -8 -5 -4 -6 4 -9 12 -6 17 4 5 2 9 -4 9 -10 0 -9 25
2 36 13 13 7 26 -9 20 -10 -4 -13 -2 -7 7 11 17 10 31 -2 39 -6 5 -6 8 2 8 7
0 10 7 7 15 -4 8 -11 12 -17 8 -6 -4 -7 -1 -1 8 14 22 12 58 -3 63 -9 4 -11 1
-7 -6 4 -7 3 -8 -5 -4 -9 6 -9 11 -1 21 8 10 7 14 -2 17 -10 4 -10 8 1 21 11
14 11 18 -3 23 -9 3 -13 10 -10 15 3 5 -1 9 -9 9 -10 0 -13 7 -10 20 3 12 -2
29 -13 41 -10 11 -19 28 -20 37 -2 9 -8 18 -13 20 -6 2 -11 15 -11 28 0 14 -4
23 -9 20 -11 -7 -23 22 -15 37 3 7 -2 3 -12 -8 -15 -18 -16 -18 -10 -2 3 11 0
25 -8 33 -17 17 -30 19 -20 2 4 -6 3 -8 -4 -5 -5 4 -8 17 -4 29 3 14 1 19 -6
14 -6 -3 -13 3 -17 14 -4 11 -11 18 -16 15 -5 -4 -17 -1 -26 5 -16 11 -16 11
-1 6 10 -3 20 0 24 7 4 7 4 9 -1 5 -4 -4 -20 -1 -35 7 -15 8 -30 11 -34 8 -3
-4 -6 4 -6 17 0 23 0 23 -15 4 -13 -18 -14 -18 -8 5 5 21 3 23 -15 19 -15 -4
-22 -2 -22 8 0 8 -5 14 -11 14 -5 0 -7 -6 -3 -12 6 -10 5 -10 -8 -1 -8 7 -19
9 -24 5 -4 -4 -2 2 6 12 9 12 10 17 3 12 -7 -4 -22 -2 -34 5 -17 9 -20 8 -14
-3 3 -7 0 -5 -8 5 -11 13 -16 15 -20 5 -3 -10 -11 -7 -28 8 -18 16 -34 20 -61
18 -28 -3 -38 0 -38 11 0 8 -5 15 -11 15 -5 0 -7 -4 -4 -10 3 -5 1 -10 -4 -10
-6 0 -11 6 -12 13 0 6 -4 3 -9 -8 -8 -19 -9 -19 -9 -1 -1 16 -3 17 -18 5 -9
-8 -14 -9 -10 -3 4 7 -2 14 -13 17 -11 3 -18 1 -14 -4 3 -5 0 -9 -5 -9 -6 0
-11 7 -11 16 0 8 -5 12 -10 9 -6 -4 -8 -10 -5 -15 3 -5 0 -12 -6 -16 -7 -4
-10 -3 -6 2 3 5 -2 18 -10 29 -15 19 -15 19 -9 -5 7 -24 6 -24 -8 -6 -9 11
-16 14 -16 8 0 -7 -5 -12 -11 -12 -5 0 -8 4 -4 9 10 17 -29 18 -49 2 -11 -9
-16 -11 -13 -5 4 7 0 15 -9 18 -8 3 -12 2 -9 -4 3 -6 2 -10 -4 -10 -5 0 -12 6
-14 13 -3 6 -6 3 -6 -8 -1 -16 -3 -17 -10 -6 -10 15 -41 24 -41 12 0 -9 -48
-6 -57 4 -5 4 -2 5 5 1 18 -11 15 3 -6 22 -10 10 -13 13 -6 9 7 -4 15 -4 18 2
4 5 -2 15 -11 21 -16 10 -16 10 2 5 16 -4 21 0 22 17 2 15 -1 18 -6 10 -5 -8
-7 1 -7 22 1 19 4 32 8 30 4 -2 9 0 13 6 3 5 -1 10 -10 10 -14 0 -14 2 1 25
16 24 16 25 -1 18 -12 -4 -16 -3 -12 4 4 6 4 13 0 16 -5 2 -3 2 4 1 21 -5 21
21 -1 46 -14 17 -15 20 -3 11 9 -8 20 -11 24 -7 3 3 1 6 -6 6 -8 0 -11 6 -7
16 4 9 2 13 -5 8 -8 -4 -9 1 -4 15 5 16 2 21 -12 21 -15 0 -16 2 -3 10 8 5 10
10 4 10 -7 0 -15 7 -18 16 -5 14 -4 15 8 5 11 -9 16 -9 22 0 4 7 3 10 -2 7
-10 -6 -28 11 -31 30 -2 7 -4 18 -5 24 -2 7 -10 18 -18 25 -15 11 -16 15 -19
49 0 9 -6 12 -13 8 -7 -5 -9 -2 -6 8 4 8 2 21 -4 29 -8 11 -9 11 -4 -3 3 -10
2 -19 -2 -22 -4 -2 -9 7 -10 22 -2 25 -17 42 -37 42 -5 -1 -2 -5 8 -11 9 -5
17 -14 17 -19 0 -6 -9 -2 -19 7 -11 9 -17 23 -13 31 3 9 1 13 -5 9 -6 -4 -19
1 -29 10 -10 10 -19 17 -21 16 -2 -2 -8 -3 -14 -3 -8 0 -8 4 0 14 10 12 8 13
-8 9 -12 -3 -18 -10 -14 -16 3 -6 1 -7 -5 -3 -6 4 -8 14 -5 23 4 11 3 14 -5 9
-7 -4 -12 -1 -13 6 0 7 -4 4 -9 -7 -7 -16 -9 -16 -9 -4 -1 9 -8 20 -17 23 -8
3 -12 2 -9 -4 9 -15 -5 -12 -21 5 -11 11 -12 15 -3 15 7 0 9 3 6 6 -4 4 -13 1
-21 -5 -11 -9 -16 -9 -22 0 -5 8 -3 9 6 4 9 -6 11 -4 6 4 -6 9 -13 8 -29 -6
-20 -17 -21 -17 -8 0 8 9 10 21 6 25 -4 4 -10 1 -12 -5 -4 -10 -8 -9 -20 2 -8
8 -19 13 -24 10 -5 -4 -9 -1 -9 6 0 8 -5 7 -17 -2 -15 -12 -16 -12 -11 6 5 21
-1 24 -59 26 -13 1 -20 6 -17 11 4 6 1 9 -7 6 -7 -2 -20 3 -29 12 -8 9 -12 11
-7 4 5 -8 -1 -10 -19 -6 -14 2 -22 7 -17 11 19 14 11 28 -14 23 -22 -4 -25 -2
-20 14 7 18 6 18 -9 -1 -16 -20 -16 -20 -11 3 3 12 1 20 -3 17 -5 -3 -16 2
-24 11 -9 8 -16 11 -16 5 0 -5 8 -15 18 -20 9 -6 12 -11 5 -11 -6 0 -15 5 -19
11 -4 8 -9 7 -16 -2 -6 -10 -7 -7 -3 9 5 18 2 22 -17 23 -13 1 -27 1 -32 0 -5
-1 -3 6 5 15 13 16 12 16 -10 4 -20 -10 -23 -10 -19 2 4 9 -2 14 -19 16 -17 1
-22 -2 -17 -11 4 -6 -4 -2 -18 11 -13 12 -31 22 -39 22 -12 0 -12 2 1 10 9 6
10 10 3 10 -6 0 -15 -5 -18 -10 -4 -6 -12 -4 -21 5 -9 8 -20 13 -25 10 -5 -4
-9 -2 -9 4 0 5 -12 8 -26 6 -14 -1 -28 3 -31 11 -2 7 -11 15 -19 18 -8 3 -13
2 -10 -3 3 -5 -5 -8 -18 -7 -17 1 -23 6 -21 18 3 11 -1 15 -11 11 -7 -3 -12
-8 -9 -12 2 -4 -2 -8 -11 -8 -10 0 -12 7 -8 21 4 15 3 17 -4 7 -7 -9 -11 -10
-17 -2 -5 9 -10 9 -21 0 -11 -9 -14 -9 -14 0 0 7 -5 9 -10 6 -6 -4 -7 -11 -4
-17 4 -7 2 -8 -5 -4 -6 4 -9 11 -6 16 3 4 -2 11 -11 14 -8 3 -12 2 -9 -4 3 -6
1 -10 -4 -10 -6 0 -11 5 -11 10 0 6 -4 10 -10 10 -5 0 -7 -8 -3 -17 4 -12 -1
-9 -15 7 -19 21 -21 22 -16 5 5 -19 5 -19 -9 -3 -10 13 -16 15 -25 6 -9 -9
-12 -9 -12 1 0 11 -3 11 -15 1 -12 -10 -15 -10 -15 0 0 10 -3 10 -14 1 -11 -9
-16 -9 -22 0 -5 8 -3 9 6 4 8 -5 11 -4 6 3 -4 6 -13 9 -21 6 -8 -4 -12 -11 -9
-16 4 -6 -3 -5 -15 1 -11 7 -21 9 -21 5 0 -3 -12 1 -26 11 -15 9 -23 12 -20 6
4 -6 0 -11 -8 -11 -9 0 -16 6 -16 13 0 8 -3 8 -8 1 -9 -13 -45 -27 -37 -15 3
5 1 12 -5 16 -5 3 -10 -1 -10 -9 0 -8 -5 -18 -12 -22 -7 -4 -8 -3 -4 4 4 7 2
20 -4 29 -11 17 -11 17 -6 1z m-614 -178 c0 -5 -5 -10 -11 -10 -5 0 -7 5 -4
10 3 6 8 10 11 10 2 0 4 -4 4 -10z m1750 -166 c0 -2 -8 0 -19 5 -10 6 -22 7
-26 3 -5 -4 -5 -1 -1 6 5 9 12 9 27 2 10 -6 19 -13 19 -16z m-1950 -98 c0 -3
-4 -8 -10 -11 -5 -3 -10 -1 -10 4 0 6 5 11 10 11 6 0 10 -2 10 -4z m-356 -352
c3 -8 2 -12 -4 -9 -6 3 -10 10 -10 16 0 14 7 11 14 -7z m2821 -62 c-3 -3 -11
0 -18 7 -9 10 -8 11 6 5 10 -3 15 -9 12 -12z m170 -252 c3 -5 1 -10 -4 -10 -6
0 -11 5 -11 10 0 6 2 10 4 10 3 0 8 -4 11 -10z m-2868 -336 c-3 -3 -12 -4 -19
-1 -8 3 -5 6 6 6 11 1 17 -2 13 -5z m3639 -105 c3 -6 1 -16 -6 -22 -10 -9 -11
-9 -5 2 4 8 2 17 -6 22 -9 6 -10 9 -2 9 6 0 15 -5 19 -11z m-1033 -102 c-4 -6
-1 -7 6 -3 7 5 10 13 8 20 -6 14 30 19 38 6 3 -5 13 -6 22 -3 12 5 14 3 8 -8
-5 -8 -1 -7 12 4 25 22 40 22 22 0 -13 -17 -13 -17 13 0 34 22 44 22 27 0 -13
-15 -12 -15 6 -6 11 6 26 8 33 6 7 -3 20 1 29 9 15 11 16 11 10 -6 -7 -17 -6
-17 15 -4 18 12 27 13 41 4 14 -8 20 -8 28 4 9 13 10 13 6 -2 -7 -19 19 -33
29 -16 5 7 2 8 -6 3 -9 -5 -11 -4 -6 4 6 8 12 9 20 2 7 -6 17 -7 22 -3 4 4 2
-1 -5 -11 -12 -15 -12 -17 3 -11 9 3 16 1 16 -5 0 -6 6 -8 14 -5 7 3 21 -2 29
-11 9 -9 20 -16 24 -16 4 -1 7 -5 5 -10 -1 -5 2 -9 8 -9 6 0 9 -3 9 -7 -3 -19
2 -34 10 -29 4 3 8 -5 8 -17 1 -40 3 -48 11 -43 14 8 7 -31 -9 -50 -13 -16
-12 -16 11 -4 l24 13 -17 -26 c-16 -25 -16 -26 5 -22 l21 4 -21 -20 c-25 -22
-30 -38 -7 -19 13 11 14 10 9 -5 -5 -11 -4 -16 3 -12 5 3 10 -1 10 -9 0 -8 -6
-13 -13 -10 -8 3 -11 0 -7 -10 3 -7 8 -14 12 -14 6 0 7 -32 2 -47 -3 -8 5 -18
12 -15 4 1 2 -7 -5 -17 -7 -11 -16 -17 -21 -14 -5 3 -4 -4 2 -16 7 -11 9 -21
5 -21 -3 0 0 -8 7 -17 10 -11 10 -14 2 -9 -7 4 -13 3 -13 -3 0 -5 4 -12 9 -16
6 -3 6 -17 1 -35 -9 -33 -8 -49 4 -69 7 -10 6 -12 -4 -6 -10 6 -12 4 -7 -8 4
-11 2 -14 -7 -11 -9 3 -13 -3 -12 -18 1 -13 -2 -28 -6 -34 -6 -8 0 -10 17 -8
22 2 24 0 14 -12 -14 -17 -22 -18 -14 -1 4 6 -1 3 -9 -7 -10 -12 -12 -23 -6
-31 5 -6 5 -17 0 -25 -5 -9 -5 -19 2 -27 7 -9 7 -13 -1 -13 -6 0 -11 -4 -11
-10 0 -5 8 -7 18 -4 14 5 14 4 -2 -6 -15 -10 -16 -14 -5 -21 8 -5 9 -9 3 -9
-6 0 -10 -11 -9 -25 2 -14 -2 -25 -8 -25 -8 0 -8 -3 -2 -8 6 -4 10 -33 10 -65
0 -47 -2 -56 -14 -52 -9 3 -12 3 -8 -1 4 -4 3 -12 -3 -18 -5 -7 -5 -17 2 -26
8 -12 9 -12 4 2 -3 10 0 20 7 24 7 4 9 4 5 -1 -4 -4 -3 -17 3 -28 7 -13 7 -17
1 -13 -6 3 -13 2 -17 -3 -3 -5 3 -15 12 -21 17 -11 17 -11 1 -6 -14 4 -17 0
-14 -17 2 -12 -1 -28 -6 -34 -7 -9 -7 -13 1 -13 7 0 9 -5 4 -12 -4 -7 -6 -21
-4 -32 1 -10 -2 -15 -7 -12 -6 3 -12 -1 -15 -8 -3 -8 -1 -17 6 -20 7 -2 4 -5
-6 -5 -10 -1 -15 -6 -12 -12 4 -6 14 -8 22 -5 8 3 11 1 8 -4 -3 -6 -13 -10
-22 -10 -13 0 -13 -3 -3 -15 11 -13 10 -14 -2 -10 -9 4 -15 0 -15 -9 0 -8 3
-13 7 -11 4 2 7 -2 7 -10 0 -8 -5 -13 -10 -12 -5 1 -12 -4 -15 -12 -3 -9 0
-11 9 -7 8 4 3 -2 -11 -13 -19 -16 -20 -20 -6 -14 15 5 17 3 10 -8 -5 -8 -9
-17 -9 -21 0 -3 -4 -10 -9 -15 -5 -4 -6 -3 -2 4 3 6 2 14 -3 17 -5 3 -8 -7 -7
-23 1 -17 -2 -27 -8 -24 -5 4 -7 -1 -3 -10 4 -11 2 -14 -8 -10 -9 3 -18 -4
-25 -21 -7 -18 -14 -24 -26 -19 -14 5 -16 3 -11 -12 6 -14 5 -16 -7 -6 -11 9
-15 8 -20 -5 -5 -14 -9 -14 -23 -3 -9 8 -14 9 -10 3 9 -16 -38 -24 -54 -10 -7
6 -9 7 -7 1 3 -5 0 -15 -7 -22 -10 -10 -14 -9 -19 2 -3 8 -14 13 -25 12 -11 0
-17 -5 -15 -9 3 -5 10 -5 16 -2 7 4 8 2 4 -5 -5 -7 -13 -8 -23 -2 -9 4 -24 6
-34 4 -11 -3 -26 0 -34 7 -12 10 -18 10 -30 0 -8 -7 -45 -12 -90 -12 -55 1
-74 -3 -69 -11 3 -7 -2 -3 -10 7 -10 12 -15 33 -12 53 2 18 -1 33 -7 33 -5 0
-3 8 4 17 10 11 10 14 2 9 -14 -8 -18 6 -6 18 4 4 8 18 9 31 1 18 -2 22 -10
15 -8 -6 -12 -3 -12 10 0 10 3 17 7 14 4 -2 9 3 13 11 3 9 0 15 -10 15 -14 0
-14 2 0 16 20 19 20 28 2 21 -10 -4 -13 -1 -9 8 3 8 10 12 17 8 8 -5 8 -3 -1
8 -12 15 -11 68 2 89 5 9 4 11 -3 6 -13 -8 -17 6 -6 17 9 9 11 97 3 97 -3 0
-4 12 -1 26 4 21 2 25 -9 19 -8 -5 -5 1 5 13 14 17 16 22 5 22 -10 1 -8 5 5
15 16 12 17 15 4 15 -10 0 -15 8 -14 23 1 13 7 21 16 19 12 -2 12 0 -1 10 -16
13 -19 44 -5 66 4 7 2 12 -4 12 -6 0 -8 5 -5 10 4 6 10 8 14 6 3 -3 7 4 7 14
0 15 -3 17 -15 7 -12 -10 -13 -8 -7 11 13 40 15 93 3 85 -6 -4 -7 -1 -2 7 13
20 13 62 2 85 -10 18 -9 19 9 5 10 -8 16 -10 12 -6 -4 5 -2 16 5 24 9 13 9 14
0 8 -7 -4 -13 -4 -14 1 0 4 -2 18 -5 31 -2 14 1 22 10 22 10 0 13 12 12 45 -1
25 3 47 9 49 5 2 1 5 -10 5 -15 1 -16 4 -7 10 9 5 13 32 14 79 0 40 5 72 10
72 5 0 6 5 3 10 -4 6 -12 8 -18 4 -7 -3 -3 2 7 10 11 9 15 16 10 16 -12 0 -12
89 0 108 4 7 2 12 -6 12 -9 0 -9 3 2 10 8 5 11 10 6 10 -5 0 -3 6 3 14 9 11 9
16 0 22 -8 4 -9 3 -5 -4 4 -7 2 -12 -3 -12 -14 0 -14 17 0 26 6 3 9 17 6 31
-3 19 -1 23 11 18 12 -5 12 -1 -3 15 -10 11 -13 20 -7 20 7 0 12 6 12 13 0 7
9 13 20 14 13 1 18 -2 13 -10 -4 -7 0 -6 10 2 9 7 24 10 33 7 12 -5 15 -2 10
10 -5 14 -4 15 9 4 8 -7 12 -17 8 -23z m1074 17 c-3 -3 -12 -4 -19 -1 -8 3 -5
6 6 6 11 1 17 -2 13 -5z m23 -88 c0 -2 -7 -7 -16 -10 -8 -3 -12 -2 -9 4 6 10
25 14 25 6z m40 -220 c0 -3 -4 -8 -10 -11 -5 -3 -10 -1 -10 4 0 6 5 11 10 11
6 0 10 -2 10 -4z m-1287 -221 c4 -8 3 -16 -1 -19 -4 -3 -9 4 -9 15 -2 23 3 25
10 4z m4 -50 c0 -8 -4 -12 -9 -9 -5 3 -6 10 -3 15 9 13 12 11 12 -6z m1297
-81 c3 -8 2 -12 -4 -9 -6 3 -10 10 -10 16 0 14 7 11 14 -7z m-620 -40 c3 -8 2
-12 -4 -9 -6 3 -10 10 -10 16 0 14 7 11 14 -7z m1 -74 c3 -6 -1 -7 -9 -4 -18
7 -21 14 -7 14 6 0 13 -4 16 -10z m-485 -864 c0 -3 -4 -8 -10 -11 -5 -3 -10
-1 -10 4 0 6 5 11 10 11 6 0 10 -2 10 -4z m635 -395 c3 -5 2 -12 -3 -15 -5 -3
-9 1 -9 9 0 17 3 19 12 6z m-775 -141 c0 -5 -2 -10 -4 -10 -3 0 -8 5 -11 10
-3 6 -1 10 4 10 6 0 11 -4 11 -10z m120 0 c0 -5 -5 -10 -11 -10 -5 0 -7 5 -4
10 3 6 8 10 11 10 2 0 4 -4 4 -10z m-165 -20 c3 -5 1 -10 -4 -10 -6 0 -11 5
-11 10 0 6 2 10 4 10 3 0 8 -4 11 -10z m-2415 -40 c0 -5 -2 -10 -4 -10 -3 0
-8 5 -11 10 -3 6 -1 10 4 10 6 0 11 -4 11 -10z m3 -338 c4 9 6 9 6 1 2 -20
-16 -24 -30 -5 -13 15 -12 16 3 4 13 -10 17 -10 21 0z m197 -134 c0 -6 -6 -5
-15 2 -8 7 -15 14 -15 16 0 2 7 1 15 -2 8 -4 15 -11 15 -16z m35 12 c-3 -5
-12 -10 -18 -10 -7 0 -6 4 3 10 19 12 23 12 15 0z m1780 -50 c3 -5 1 -10 -4
-10 -6 0 -11 5 -11 10 0 6 2 10 4 10 3 0 8 -4 11 -10z m-1407 -45 c-3 -3 -9 2
-12 12 -6 14 -5 15 5 6 7 -7 10 -15 7 -18z m153 -12 c13 -16 12 -17 -3 -4 -17
13 -22 21 -14 21 2 0 10 -8 17 -17z m579 13 c0 -2 -8 -10 -17 -17 -16 -13 -17
-12 -4 4 13 16 21 21 21 13z m-140 -10 c0 -3 -4 -8 -10 -11 -5 -3 -10 -1 -10
4 0 6 5 11 10 11 6 0 10 -2 10 -4z"/>
<path d="M3615 3370 c3 -5 8 -10 11 -10 2 0 4 5 4 10 0 6 -5 10 -11 10 -5 0
-7 -4 -4 -10z"/>
<path d="M4095 2820 c-3 -5 -2 -10 4 -10 5 0 13 5 16 10 3 6 2 10 -4 10 -5 0
-13 -4 -16 -10z"/>
<path d="M4095 2789 c-4 -6 -5 -12 -2 -15 2 -3 7 2 10 11 7 17 1 20 -8 4z"/>
<path d="M3433 2747 c0 -8 6 -14 13 -14 7 0 10 6 7 14 -3 7 -8 13 -12 13 -4 0
-8 -6 -8 -13z"/>
<path d="M3439 2663 c-5 -36 -5 -62 -1 -58 7 7 12 65 6 65 -2 0 -4 -3 -5 -7z"/>
<path d="M4028 2113 c7 -3 16 -2 19 1 4 3 -2 6 -13 5 -11 0 -14 -3 -6 -6z"/>
<path d="M3510 1740 c0 -5 5 -10 11 -10 5 0 7 5 4 10 -3 6 -8 10 -11 10 -2 0
-4 -4 -4 -10z"/>
<path d="M2200 5000 c-9 -6 -10 -10 -3 -10 6 0 15 5 18 10 8 12 4 12 -15 0z"/>
<path d="M2775 4860 c3 -5 8 -10 11 -10 2 0 4 5 4 10 0 6 -5 10 -11 10 -5 0
-7 -4 -4 -10z"/>
<path d="M3610 4400 c-13 -8 -12 -10 3 -10 9 0 17 5 17 10 0 12 -1 12 -20 0z"/>
<path d="M4175 3850 c3 -5 8 -10 11 -10 2 0 4 5 4 10 0 6 -5 10 -11 10 -5 0
-7 -4 -4 -10z"/>
<path d="M4707 3129 c7 -7 15 -10 18 -7 3 3 -2 9 -12 12 -14 6 -15 5 -6 -5z"/>
<path d="M980 3000 c0 -5 5 -10 11 -10 5 0 7 5 4 10 -3 6 -8 10 -11 10 -2 0
-4 -4 -4 -10z"/>
<path d="M4730 2646 c0 -2 7 -7 16 -10 8 -3 12 -2 9 4 -6 10 -25 14 -25 6z"/>
<path d="M1001 2594 c0 -11 3 -14 6 -6 3 7 2 16 -1 19 -3 4 -6 -2 -5 -13z"/>
<path d="M1007 2419 c7 -7 15 -10 18 -7 3 3 -2 9 -12 12 -14 6 -15 5 -6 -5z"/>
<path d="M4685 2240 c-3 -5 1 -10 10 -10 9 0 13 5 10 10 -3 6 -8 10 -10 10 -2
0 -7 -4 -10 -10z"/>
<path d="M4605 1811 c-3 -5 0 -13 6 -17 7 -4 9 -3 5 4 -3 5 0 13 6 15 9 4 10
6 1 6 -6 1 -14 -3 -18 -8z"/>
<path d="M4560 1660 c-9 -6 -10 -10 -3 -10 6 0 15 5 18 10 8 12 4 12 -15 0z"/>
<path d="M1007 1499 c7 -7 15 -10 18 -7 3 3 -2 9 -12 12 -14 6 -15 5 -6 -5z"/>
<path d="M994 1342 c4 -3 14 -7 22 -8 9 -1 13 0 10 4 -4 3 -14 7 -22 8 -9 1
-13 0 -10 -4z"/>
<path d="M1006 1275 c-9 -26 -7 -32 5 -12 6 10 9 21 6 23 -2 3 -7 -2 -11 -11z"/>
<path d="M3825 1190 c-3 -6 1 -7 9 -4 18 7 21 14 7 14 -6 0 -13 -4 -16 -10z"/>
<path d="M3425 810 c-3 -6 1 -7 9 -4 18 7 21 14 7 14 -6 0 -13 -4 -16 -10z"/>
<path d="M1316 631 c-3 -4 6 -7 19 -7 14 0 22 2 19 5 -8 8 -34 10 -38 2z"/>
<path d="M2710 581 c0 -6 4 -13 10 -16 6 -3 7 1 4 9 -7 18 -14 21 -14 7z"/>
<path d="M1935 570 c3 -5 8 -10 11 -10 2 0 4 5 4 10 0 6 -5 10 -11 10 -5 0 -7
-4 -4 -10z"/>
<path d="M2495 569 c-4 -6 -4 -13 -1 -16 3 -4 6 -1 6 6 0 7 5 9 12 5 7 -4 8
-3 4 4 -9 15 -13 15 -21 1z"/>
<path d="M2050 560 c0 -5 5 -10 11 -10 5 0 7 5 4 10 -3 6 -8 10 -11 10 -2 0
-4 -4 -4 -10z"/>
<path d="M2090 558 c0 -4 4 -8 9 -8 6 0 12 4 15 8 3 5 -1 9 -9 9 -8 0 -15 -4
-15 -9z"/>
</g>
</svg>
